<mxfile host="app.diagrams.net" modified="2022-02-28T09:47:52.608Z" agent="5.0 (Windows NT 10.0; Win64; x64) AppleWebKit/537.36 (KHTML, like Gecko) Chrome/98.0.4758.102 Safari/537.36" etag="pb3y554xea_82qb3Z7pO" version="16.6.4" type="github">
  <diagram name="Page-1" id="c37626ed-c26b-45fb-9056-f9ebc6bb27b6">
    <mxGraphModel dx="1350" dy="-69" grid="1" gridSize="9" guides="1" tooltips="1" connect="1" arrows="1" fold="1" page="1" pageScale="1" pageWidth="1100" pageHeight="850" background="none" math="0" shadow="0">
      <root>
        <mxCell id="0" />
        <mxCell id="1" parent="0" />
        <mxCell id="fl-BmTNFC80VgyWZr80f-6" value="" style="shape=image;html=1;verticalAlign=top;verticalLabelPosition=bottom;labelBackgroundColor=#ffffff;imageAspect=0;aspect=fixed;image=https://cdn2.iconfinder.com/data/icons/boxicons-solid-vol-1/24/bxs-cctv-128.png" vertex="1" parent="1">
          <mxGeometry x="144" y="1551" width="80" height="80" as="geometry" />
        </mxCell>
        <mxCell id="fl-BmTNFC80VgyWZr80f-56" style="edgeStyle=orthogonalEdgeStyle;rounded=0;orthogonalLoop=1;jettySize=auto;html=1;exitX=0.5;exitY=1;exitDx=0;exitDy=0;exitPerimeter=0;endArrow=none;endFill=0;strokeWidth=3;" edge="1" parent="1" source="fl-BmTNFC80VgyWZr80f-24" target="fl-BmTNFC80VgyWZr80f-6">
          <mxGeometry relative="1" as="geometry" />
        </mxCell>
        <mxCell id="fl-BmTNFC80VgyWZr80f-58" style="edgeStyle=orthogonalEdgeStyle;rounded=0;orthogonalLoop=1;jettySize=auto;html=1;exitX=0.5;exitY=0;exitDx=0;exitDy=0;exitPerimeter=0;entryX=0;entryY=0.5;entryDx=0;entryDy=0;entryPerimeter=0;endArrow=none;endFill=0;strokeWidth=3;" edge="1" parent="1" source="fl-BmTNFC80VgyWZr80f-24" target="fl-BmTNFC80VgyWZr80f-44">
          <mxGeometry relative="1" as="geometry" />
        </mxCell>
        <mxCell id="fl-BmTNFC80VgyWZr80f-24" value="" style="shape=mxgraph.cisco.computers_and_peripherals.ibm_mini_as400;sketch=0;html=1;pointerEvents=1;dashed=0;fillColor=#036897;strokeColor=#ffffff;strokeWidth=2;verticalLabelPosition=bottom;verticalAlign=top;align=center;outlineConnect=0;" vertex="1" parent="1">
          <mxGeometry x="157" y="1350" width="54" height="80" as="geometry" />
        </mxCell>
        <mxCell id="fl-BmTNFC80VgyWZr80f-32" value="" style="shape=image;html=1;verticalAlign=top;verticalLabelPosition=bottom;labelBackgroundColor=#ffffff;imageAspect=0;aspect=fixed;image=https://cdn2.iconfinder.com/data/icons/boxicons-solid-vol-1/24/bxs-cctv-128.png" vertex="1" parent="1">
          <mxGeometry x="310" y="1551" width="80" height="80" as="geometry" />
        </mxCell>
        <mxCell id="fl-BmTNFC80VgyWZr80f-57" style="edgeStyle=orthogonalEdgeStyle;rounded=0;orthogonalLoop=1;jettySize=auto;html=1;exitX=0.5;exitY=1;exitDx=0;exitDy=0;exitPerimeter=0;entryX=0.5;entryY=0;entryDx=0;entryDy=0;endArrow=none;endFill=0;strokeWidth=3;" edge="1" parent="1" source="fl-BmTNFC80VgyWZr80f-33" target="fl-BmTNFC80VgyWZr80f-32">
          <mxGeometry relative="1" as="geometry" />
        </mxCell>
        <mxCell id="fl-BmTNFC80VgyWZr80f-59" style="edgeStyle=orthogonalEdgeStyle;rounded=0;orthogonalLoop=1;jettySize=auto;html=1;exitX=0.5;exitY=0;exitDx=0;exitDy=0;exitPerimeter=0;entryX=0.12;entryY=0.9;entryDx=0;entryDy=0;entryPerimeter=0;endArrow=none;endFill=0;strokeWidth=3;" edge="1" parent="1" source="fl-BmTNFC80VgyWZr80f-33" target="fl-BmTNFC80VgyWZr80f-44">
          <mxGeometry relative="1" as="geometry" />
        </mxCell>
        <mxCell id="fl-BmTNFC80VgyWZr80f-33" value="" style="shape=mxgraph.cisco.computers_and_peripherals.ibm_mini_as400;sketch=0;html=1;pointerEvents=1;dashed=0;fillColor=#036897;strokeColor=#ffffff;strokeWidth=2;verticalLabelPosition=bottom;verticalAlign=top;align=center;outlineConnect=0;" vertex="1" parent="1">
          <mxGeometry x="323" y="1350" width="54" height="80" as="geometry" />
        </mxCell>
        <mxCell id="fl-BmTNFC80VgyWZr80f-35" value="" style="shape=image;html=1;verticalAlign=top;verticalLabelPosition=bottom;labelBackgroundColor=#ffffff;imageAspect=0;aspect=fixed;image=https://cdn2.iconfinder.com/data/icons/boxicons-solid-vol-1/24/bxs-cctv-128.png" vertex="1" parent="1">
          <mxGeometry x="481" y="1551" width="80" height="80" as="geometry" />
        </mxCell>
        <mxCell id="fl-BmTNFC80VgyWZr80f-55" style="edgeStyle=orthogonalEdgeStyle;rounded=0;orthogonalLoop=1;jettySize=auto;html=1;exitX=0.5;exitY=1;exitDx=0;exitDy=0;exitPerimeter=0;entryX=0.5;entryY=0;entryDx=0;entryDy=0;endArrow=none;endFill=0;strokeWidth=3;" edge="1" parent="1" source="fl-BmTNFC80VgyWZr80f-36" target="fl-BmTNFC80VgyWZr80f-35">
          <mxGeometry relative="1" as="geometry" />
        </mxCell>
        <mxCell id="fl-BmTNFC80VgyWZr80f-60" style="edgeStyle=orthogonalEdgeStyle;rounded=0;orthogonalLoop=1;jettySize=auto;html=1;exitX=0.5;exitY=0;exitDx=0;exitDy=0;exitPerimeter=0;entryX=0.5;entryY=1;entryDx=0;entryDy=0;entryPerimeter=0;endArrow=none;endFill=0;strokeWidth=3;" edge="1" parent="1" source="fl-BmTNFC80VgyWZr80f-36" target="fl-BmTNFC80VgyWZr80f-44">
          <mxGeometry relative="1" as="geometry" />
        </mxCell>
        <mxCell id="fl-BmTNFC80VgyWZr80f-36" value="" style="shape=mxgraph.cisco.computers_and_peripherals.ibm_mini_as400;sketch=0;html=1;pointerEvents=1;dashed=0;fillColor=#036897;strokeColor=#ffffff;strokeWidth=2;verticalLabelPosition=bottom;verticalAlign=top;align=center;outlineConnect=0;" vertex="1" parent="1">
          <mxGeometry x="494" y="1350" width="54" height="80" as="geometry" />
        </mxCell>
        <mxCell id="fl-BmTNFC80VgyWZr80f-38" value="" style="shape=image;html=1;verticalAlign=top;verticalLabelPosition=bottom;labelBackgroundColor=#ffffff;imageAspect=0;aspect=fixed;image=https://cdn2.iconfinder.com/data/icons/boxicons-solid-vol-1/24/bxs-cctv-128.png" vertex="1" parent="1">
          <mxGeometry x="652" y="1551" width="80" height="80" as="geometry" />
        </mxCell>
        <mxCell id="fl-BmTNFC80VgyWZr80f-54" style="edgeStyle=orthogonalEdgeStyle;rounded=0;orthogonalLoop=1;jettySize=auto;html=1;exitX=0.5;exitY=1;exitDx=0;exitDy=0;exitPerimeter=0;entryX=0.5;entryY=0;entryDx=0;entryDy=0;endArrow=none;endFill=0;strokeWidth=3;" edge="1" parent="1" source="fl-BmTNFC80VgyWZr80f-39" target="fl-BmTNFC80VgyWZr80f-38">
          <mxGeometry relative="1" as="geometry" />
        </mxCell>
        <mxCell id="fl-BmTNFC80VgyWZr80f-61" style="edgeStyle=orthogonalEdgeStyle;rounded=0;orthogonalLoop=1;jettySize=auto;html=1;exitX=0.5;exitY=0;exitDx=0;exitDy=0;exitPerimeter=0;entryX=0.88;entryY=0.9;entryDx=0;entryDy=0;entryPerimeter=0;endArrow=none;endFill=0;strokeWidth=3;" edge="1" parent="1" source="fl-BmTNFC80VgyWZr80f-39" target="fl-BmTNFC80VgyWZr80f-44">
          <mxGeometry relative="1" as="geometry" />
        </mxCell>
        <mxCell id="fl-BmTNFC80VgyWZr80f-39" value="" style="shape=mxgraph.cisco.computers_and_peripherals.ibm_mini_as400;sketch=0;html=1;pointerEvents=1;dashed=0;fillColor=#036897;strokeColor=#ffffff;strokeWidth=2;verticalLabelPosition=bottom;verticalAlign=top;align=center;outlineConnect=0;" vertex="1" parent="1">
          <mxGeometry x="665" y="1350" width="54" height="80" as="geometry" />
        </mxCell>
        <mxCell id="fl-BmTNFC80VgyWZr80f-41" value="" style="shape=image;html=1;verticalAlign=top;verticalLabelPosition=bottom;labelBackgroundColor=#ffffff;imageAspect=0;aspect=fixed;image=https://cdn2.iconfinder.com/data/icons/boxicons-solid-vol-1/24/bxs-cctv-128.png" vertex="1" parent="1">
          <mxGeometry x="832" y="1551" width="80" height="80" as="geometry" />
        </mxCell>
        <mxCell id="fl-BmTNFC80VgyWZr80f-53" style="edgeStyle=orthogonalEdgeStyle;rounded=0;orthogonalLoop=1;jettySize=auto;html=1;exitX=0.5;exitY=1;exitDx=0;exitDy=0;exitPerimeter=0;endArrow=none;endFill=0;strokeWidth=3;" edge="1" parent="1" source="fl-BmTNFC80VgyWZr80f-42" target="fl-BmTNFC80VgyWZr80f-41">
          <mxGeometry relative="1" as="geometry" />
        </mxCell>
        <mxCell id="fl-BmTNFC80VgyWZr80f-62" style="edgeStyle=orthogonalEdgeStyle;rounded=0;orthogonalLoop=1;jettySize=auto;html=1;exitX=0.5;exitY=0;exitDx=0;exitDy=0;exitPerimeter=0;entryX=1;entryY=0.5;entryDx=0;entryDy=0;entryPerimeter=0;endArrow=none;endFill=0;strokeWidth=3;" edge="1" parent="1" source="fl-BmTNFC80VgyWZr80f-42" target="fl-BmTNFC80VgyWZr80f-44">
          <mxGeometry relative="1" as="geometry" />
        </mxCell>
        <mxCell id="fl-BmTNFC80VgyWZr80f-42" value="" style="shape=mxgraph.cisco.computers_and_peripherals.ibm_mini_as400;sketch=0;html=1;pointerEvents=1;dashed=0;fillColor=#036897;strokeColor=#ffffff;strokeWidth=2;verticalLabelPosition=bottom;verticalAlign=top;align=center;outlineConnect=0;" vertex="1" parent="1">
          <mxGeometry x="845" y="1350" width="54" height="80" as="geometry" />
        </mxCell>
        <mxCell id="fl-BmTNFC80VgyWZr80f-63" style="edgeStyle=orthogonalEdgeStyle;rounded=0;orthogonalLoop=1;jettySize=auto;html=1;exitX=0.5;exitY=0;exitDx=0;exitDy=0;exitPerimeter=0;endArrow=none;endFill=0;strokeWidth=3;" edge="1" parent="1" source="fl-BmTNFC80VgyWZr80f-44">
          <mxGeometry relative="1" as="geometry">
            <mxPoint x="532.8571428571429" y="1016.9999999999999" as="targetPoint" />
          </mxGeometry>
        </mxCell>
        <mxCell id="fl-BmTNFC80VgyWZr80f-44" value="" style="shape=mxgraph.cisco.routers.router;sketch=0;html=1;pointerEvents=1;dashed=0;fillColor=#036897;strokeColor=#ffffff;strokeWidth=2;verticalLabelPosition=bottom;verticalAlign=top;align=center;outlineConnect=0;" vertex="1" parent="1">
          <mxGeometry x="494" y="1161" width="78" height="53" as="geometry" />
        </mxCell>
        <mxCell id="fl-BmTNFC80VgyWZr80f-64" value="" style="shape=mxgraph.cisco.storage.cloud;sketch=0;html=1;pointerEvents=1;dashed=0;fillColor=#036897;strokeColor=#ffffff;strokeWidth=2;verticalLabelPosition=bottom;verticalAlign=top;align=center;outlineConnect=0;" vertex="1" parent="1">
          <mxGeometry x="440" y="918" width="186" height="106" as="geometry" />
        </mxCell>
      </root>
    </mxGraphModel>
  </diagram>
</mxfile>
